<svg xmlns="http://www.w3.org/2000/svg" viewBox="0 0 100 100" width="256" height="256">
  <rect x="15" y="55" width="8" height="14" rx="3" fill="#202531" />
  <rect x="67" y="55" width="8" height="14" rx="3" fill="#202531" />

  <rect x="20" y="45" width="50" height="40" rx="10" fill="#478CBF" stroke="#202531" stroke-width="4" stroke-linejoin="round" />

  <circle cx="32" cy="68" r="6" fill="#FFFFFF" />
  <circle cx="33" cy="68" r="2.5" fill="#202531" /> <circle cx="58" cy="68" r="6" fill="#FFFFFF" />
  <circle cx="57" cy="68" r="2.5" fill="#202531" /> <line x1="38" y1="68" x2="52" y2="68" stroke="#FFFFFF" stroke-width="2" stroke-linecap="round" />

  <rect x="27" y="52" width="36" height="8" rx="4" fill="#202531" />
  
  <circle cx="34" cy="56" r="1.5" fill="#FFFFFF">
    <animate attributeName="opacity" values="0.2;1;0.2" dur="1.5s" repeatCount="indefinite" begin="0s"/>
  </circle>
  <circle cx="45" cy="56" r="1.5" fill="#FFFFFF">
    <animate attributeName="opacity" values="0.2;1;0.2" dur="1.5s" repeatCount="indefinite" begin="0.5s"/>
  </circle>
  <circle cx="56" cy="56" r="1.5" fill="#FFFFFF">
    <animate attributeName="opacity" values="0.2;1;0.2" dur="1.5s" repeatCount="indefinite" begin="1s"/>
  </circle>

  <g transform="translate(62, 10)">
      <path d="M 6 0 H 26 C 29.3 0 32 2.7 32 6 V 16 C 32 19.3 29.3 22 26 22 H 12 L 0 30 L 5 22 C 2.7 22 0 19.3 0 16 V 6 C 0 2.7 2.7 0 6 0 Z" fill="#FFFFFF" stroke="#202531" stroke-width="3" stroke-linecap="round" stroke-linejoin="round" />
      
      <line x1="7" y1="8" x2="25" y2="8" stroke="#478CBF" stroke-width="2" stroke-linecap="round" />
      <line x1="7" y1="14" x2="18" y2="14" stroke="#478CBF" stroke-width="2" stroke-linecap="round" />
  </g>
</svg>